<svg width="576" height="4" viewBox="0 0 576 4" fill="none" xmlns="http://www.w3.org/2000/svg">
<g id="Vector">
<path d="M2 3C2.16667 3 2.6 2.9 3 2.5C3.5 2 4 1 4.5 1C4.66667 1 5.2 1.3 6 2.5C6.16667 2.66667 6.6 3 7 3H9C9.16667 3 9.6 2.9 10 2.5C10.5 2 11 1 11.5 1C11.6667 1 12.2 1.3 13 2.5C13.1667 2.66667 13.6 3 14 3H16C16.1667 3 16.6 2.9 17 2.5C17.5 2 18 1 18.5 1C18.6667 1 19.2 1.3 20 2.5C20.1667 2.66667 20.6 3 21 3H23C23.1667 3 23.6 2.9 24 2.5C24.5 2 25 1 25.5 1C25.6667 1 26.2 1.3 27 2.5C27.1667 2.66667 27.6 3 28 3H30C30.1667 3 30.6 2.9 31 2.5C31.5 2 32 1 32.5 1C32.6667 1 33.2 1.3 34 2.5C34.1667 2.66667 34.6 3 35 3H37C37.1667 3 37.6 2.9 38 2.5C38.5 2 39 1 39.5 1C39.6667 1 40.2 1.3 41 2.5C41.1667 2.66667 41.6 3 42 3H44C44.1667 3 44.6 2.9 45 2.5C45.5 2 46 1 46.5 1C46.6667 1 47.2 1.3 48 2.5C48.1667 2.66667 48.6 3 49 3H51C51.1667 3 51.6 2.9 52 2.5C52.5 2 53 1 53.5 1C53.6667 1 54.2 1.3 55 2.5C55.1667 2.66667 55.6 3 56 3H58C58.1667 3 58.6 2.9 59 2.5C59.5 2 60 1 60.5 1C60.6667 1 61.2 1.3 62 2.5C62.1667 2.66667 62.6 3 63 3H65C65.1667 3 65.6 2.9 66 2.5C66.5 2 67 1 67.5 1C67.6667 1 68.2 1.3 69 2.5C69.1667 2.66667 69.6 3 70 3H72C72.1667 3 72.6 2.9 73 2.5C73.5 2 74 1 74.5 1C74.6667 1 75.2 1.3 76 2.5C76.1667 2.66667 76.6 3 77 3H79C79.1667 3 79.6 2.9 80 2.5C80.5 2 81 1 81.5 1C81.6667 1 82.2 1.3 83 2.5C83.1667 2.66667 83.6 3 84 3H86C86.1667 3 86.6 2.9 87 2.5C87.5 2 88 1 88.5 1C88.6667 1 89.2 1.3 90 2.5C90.1667 2.66667 90.6 3 91 3H93C93.1667 3 93.6 2.9 94 2.5C94.5 2 95 1 95.5 1C95.6667 1 96.2 1.3 97 2.5C97.1667 2.66667 97.6 3 98 3H100C100.167 3 100.6 2.9 101 2.5C101.5 2 102 1 102.5 1C102.667 1 103.2 1.3 104 2.5C104.167 2.66667 104.6 3 105 3H107C107.167 3 107.6 2.9 108 2.5C108.5 2 109 1 109.5 1C109.667 1 110.2 1.3 111 2.5C111.167 2.66667 111.6 3 112 3H114C114.167 3 114.6 2.9 115 2.5C115.5 2 116 1 116.5 1C116.667 1 117.2 1.3 118 2.5C118.167 2.66667 118.6 3 119 3H121C121.167 3 121.6 2.9 122 2.5C122.5 2 123 1 123.5 1C123.667 1 124.2 1.3 125 2.5C125.167 2.66667 125.6 3 126 3H128C128.167 3 128.6 2.9 129 2.5C129.5 2 130 1 130.5 1C130.667 1 131.2 1.3 132 2.5C132.167 2.66667 132.6 3 133 3H135C135.167 3 135.6 2.9 136 2.5C136.5 2 137 1 137.5 1C137.667 1 138.2 1.3 139 2.5C139.167 2.66667 139.6 3 140 3H142C142.167 3 142.6 2.9 143 2.5C143.5 2 144 1 144.5 1C144.667 1 145.2 1.3 146 2.5C146.167 2.66667 146.6 3 147 3H149C149.167 3 149.6 2.9 150 2.5C150.5 2 151 1 151.5 1C151.667 1 152.2 1.3 153 2.5C153.167 2.66667 153.6 3 154 3H156C156.167 3 156.6 2.9 157 2.5C157.5 2 158 1 158.5 1C158.667 1 159.2 1.3 160 2.5C160.167 2.66667 160.6 3 161 3H163C163.167 3 163.6 2.9 164 2.5C164.5 2 165 1 165.5 1C165.667 1 166.2 1.3 167 2.5C167.167 2.66667 167.6 3 168 3H170C170.167 3 170.6 2.9 171 2.5C171.5 2 172 1 172.5 1C172.667 1 173.2 1.3 174 2.5C174.167 2.66667 174.6 3 175 3H177C177.167 3 177.6 2.9 178 2.5C178.5 2 179 1 179.5 1C179.667 1 180.2 1.3 181 2.5C181.167 2.66667 181.6 3 182 3H184C184.167 3 184.6 2.9 185 2.5C185.5 2 186 1 186.5 1C186.667 1 187.2 1.3 188 2.5C188.167 2.66667 188.6 3 189 3H191C191.167 3 191.6 2.9 192 2.5C192.5 2 193 1 193.5 1C193.667 1 194.2 1.3 195 2.5C195.167 2.66667 195.6 3 196 3H198C198.167 3 198.6 2.9 199 2.5C199.5 2 200 1 200.5 1C200.667 1 201.2 1.3 202 2.5C202.167 2.66667 202.6 3 203 3H205C205.167 3 205.6 2.9 206 2.5C206.5 2 207 1 207.5 1C207.667 1 208.2 1.3 209 2.5C209.167 2.66667 209.6 3 210 3H212C212.167 3 212.6 2.9 213 2.5C213.5 2 214 1 214.5 1C214.667 1 215.2 1.3 216 2.5C216.167 2.66667 216.6 3 217 3H219C219.167 3 219.6 2.9 220 2.5C220.5 2 221 1 221.5 1C221.667 1 222.2 1.3 223 2.5C223.167 2.66667 223.6 3 224 3H226C226.167 3 226.6 2.9 227 2.5C227.5 2 228 1 228.5 1C228.667 1 229.2 1.3 230 2.5C230.167 2.66667 230.6 3 231 3H233C233.167 3 233.6 2.9 234 2.5C234.5 2 235 1 235.5 1C235.667 1 236.2 1.3 237 2.5C237.167 2.66667 237.6 3 238 3H240C240.167 3 240.6 2.9 241 2.5C241.5 2 242 1 242.5 1C242.667 1 243.2 1.3 244 2.5C244.167 2.66667 244.6 3 245 3H247C247.167 3 247.6 2.9 248 2.5C248.5 2 249 1 249.5 1C249.667 1 250.2 1.3 251 2.5C251.167 2.66667 251.6 3 252 3H254C254.167 3 254.6 2.9 255 2.5C255.5 2 256 1 256.5 1C256.667 1 257.2 1.3 258 2.5C258.167 2.66667 258.6 3 259 3H261C261.167 3 261.6 2.9 262 2.5C262.5 2 263 1 263.5 1C263.667 1 264.2 1.3 265 2.5C265.167 2.66667 265.6 3 266 3H268C268.167 3 268.6 2.9 269 2.5C269.5 2 270 1 270.5 1C270.667 1 271.2 1.3 272 2.5C272.167 2.66667 272.6 3 273 3H275C275.167 3 275.6 2.9 276 2.5C276.5 2 277 1 277.5 1C277.667 1 278.2 1.3 279 2.5C279.167 2.66667 279.6 3 280 3H282C282.167 3 282.6 2.9 283 2.5C283.5 2 284 1 284.5 1C284.667 1 285.2 1.3 286 2.5C286.167 2.66667 286.6 3 287 3H289C289.167 3 289.6 2.9 290 2.5C290.5 2 291 1 291.5 1C291.667 1 292.2 1.3 293 2.5C293.167 2.66667 293.6 3 294 3H296C296.167 3 296.6 2.9 297 2.5C297.5 2 298 1 298.5 1C298.667 1 299.2 1.3 300 2.5C300.167 2.66667 300.6 3 301 3H303C303.167 3 303.6 2.9 304 2.5C304.5 2 305 1 305.5 1C305.667 1 306.2 1.3 307 2.5C307.167 2.66667 307.6 3 308 3H310C310.167 3 310.6 2.9 311 2.5C311.5 2 312 1 312.5 1C312.667 1 313.2 1.3 314 2.5C314.167 2.66667 314.6 3 315 3H317C317.167 3 317.6 2.9 318 2.5C318.5 2 319 1 319.5 1C319.667 1 320.2 1.3 321 2.5C321.167 2.66667 321.6 3 322 3H324C324.167 3 324.6 2.9 325 2.5C325.5 2 326 1 326.5 1C326.667 1 327.2 1.3 328 2.5C328.167 2.66667 328.6 3 329 3H331C331.167 3 331.6 2.9 332 2.5C332.5 2 333 1 333.5 1C333.667 1 334.2 1.3 335 2.5C335.167 2.66667 335.6 3 336 3H338C338.167 3 338.6 2.9 339 2.5C339.5 2 340 1 340.5 1C340.667 1 341.2 1.3 342 2.5C342.167 2.66667 342.6 3 343 3H345C345.167 3 345.6 2.9 346 2.5C346.5 2 347 1 347.5 1C347.667 1 348.2 1.3 349 2.5C349.167 2.66667 349.6 3 350 3H352C352.167 3 352.6 2.9 353 2.5C353.5 2 354 1 354.5 1C354.667 1 355.2 1.3 356 2.5C356.167 2.66667 356.6 3 357 3H359C359.167 3 359.6 2.9 360 2.5C360.5 2 361 1 361.5 1C361.667 1 362.2 1.3 363 2.5C363.167 2.66667 363.6 3 364 3H366C366.167 3 366.6 2.9 367 2.5C367.5 2 368 1 368.5 1C368.667 1 369.2 1.3 370 2.5C370.167 2.66667 370.6 3 371 3H373C373.167 3 373.6 2.9 374 2.5C374.5 2 375 1 375.5 1C375.667 1 376.2 1.3 377 2.5C377.167 2.66667 377.6 3 378 3H380C380.167 3 380.6 2.9 381 2.5C381.5 2 382 1 382.5 1C382.667 1 383.2 1.3 384 2.5C384.167 2.66667 384.6 3 385 3H387C387.167 3 387.6 2.9 388 2.5C388.5 2 389 1 389.5 1C389.667 1 390.2 1.3 391 2.5C391.167 2.66667 391.6 3 392 3H394C394.167 3 394.6 2.9 395 2.5C395.5 2 396 1 396.5 1C396.667 1 397.2 1.3 398 2.5C398.167 2.66667 398.6 3 399 3H401C401.167 3 401.6 2.9 402 2.5C402.5 2 403 1 403.5 1C403.667 1 404.2 1.3 405 2.5C405.167 2.66667 405.6 3 406 3H408C408.167 3 408.6 2.9 409 2.5C409.5 2 410 1 410.5 1C410.667 1 411.2 1.3 412 2.5C412.167 2.66667 412.6 3 413 3H415C415.167 3 415.6 2.9 416 2.5C416.5 2 417 1 417.5 1C417.667 1 418.2 1.3 419 2.5C419.167 2.66667 419.6 3 420 3H422C422.167 3 422.6 2.9 423 2.5C423.5 2 424 1 424.5 1C424.667 1 425.2 1.3 426 2.5C426.167 2.66667 426.6 3 427 3H429C429.167 3 429.6 2.9 430 2.5C430.5 2 431 1 431.5 1C431.667 1 432.2 1.3 433 2.5C433.167 2.66667 433.6 3 434 3H436C436.167 3 436.6 2.9 437 2.5C437.5 2 438 1 438.5 1C438.667 1 439.2 1.3 440 2.5C440.167 2.66667 440.6 3 441 3H443C443.167 3 443.6 2.9 444 2.5C444.5 2 445 1 445.5 1C445.667 1 446.2 1.3 447 2.5C447.167 2.66667 447.6 3 448 3H450C450.167 3 450.6 2.9 451 2.5C451.5 2 452 1 452.5 1C452.667 1 453.2 1.3 454 2.5C454.167 2.66667 454.6 3 455 3H457C457.167 3 457.6 2.9 458 2.5C458.5 2 459 1 459.5 1C459.667 1 460.2 1.3 461 2.5C461.167 2.66667 461.6 3 462 3H464C464.167 3 464.6 2.9 465 2.5C465.5 2 466 1 466.5 1C466.667 1 467.2 1.3 468 2.5C468.167 2.66667 468.6 3 469 3H471C471.167 3 471.6 2.9 472 2.5C472.5 2 473 1 473.5 1C473.667 1 474.2 1.3 475 2.5C475.167 2.66667 475.6 3 476 3H478C478.167 3 478.6 2.9 479 2.5C479.5 2 480 1 480.5 1C480.667 1 481.2 1.3 482 2.5C482.167 2.66667 482.6 3 483 3H485C485.167 3 485.6 2.9 486 2.5C486.5 2 487 1 487.5 1C487.667 1 488.2 1.3 489 2.5C489.167 2.66667 489.6 3 490 3H492C492.167 3 492.6 2.9 493 2.5C493.5 2 494 1 494.5 1C494.667 1 495.2 1.3 496 2.5C496.167 2.66667 496.6 3 497 3H499C499.167 3 499.6 2.9 500 2.5C500.5 2 501 1 501.5 1C501.667 1 502.2 1.3 503 2.5C503.167 2.66667 503.6 3 504 3H506C506.167 3 506.6 2.9 507 2.5C507.5 2 508 1 508.5 1C508.667 1 509.2 1.3 510 2.5C510.167 2.66667 510.6 3 511 3H513C513.167 3 513.6 2.9 514 2.5C514.5 2 515 1 515.5 1C515.667 1 516.2 1.3 517 2.5C517.167 2.66667 517.6 3 518 3H520C520.167 3 520.6 2.9 521 2.5C521.5 2 522 1 522.5 1C522.667 1 523.2 1.3 524 2.5C524.167 2.66667 524.6 3 525 3H527C527.167 3 527.6 2.9 528 2.5C528.5 2 529 1 529.5 1C529.667 1 530.2 1.3 531 2.5C531.167 2.66667 531.6 3 532 3H534C534.167 3 534.6 2.9 535 2.5C535.5 2 536 1 536.5 1C536.667 1 537.2 1.3 538 2.5C538.167 2.66667 538.6 3 539 3H541C541.167 3 541.6 2.9 542 2.5C542.5 2 543 1 543.5 1C543.667 1 544.2 1.3 545 2.5C545.167 2.66667 545.6 3 546 3H548C548.167 3 548.6 2.9 549 2.5C549.5 2 550 1 550.5 1C550.667 1 551.2 1.3 552 2.5C552.167 2.66667 552.6 3 553 3H555C555.167 3 555.6 2.9 556 2.5C556.5 2 557 1 557.5 1C557.667 1 558.2 1.3 559 2.5C559.167 2.66667 559.6 3 560 3H562C562.167 3 562.6 2.9 563 2.5C563.5 2 564 1 564.5 1C564.667 1 565.2 1.3 566 2.5C566.167 2.66667 566.6 3 567 3H569C569.167 3 569.6 2.9 570 2.5C570.5 2 571 1 571.5 1C571.667 1 572.2 1.3 573 2.5C573.167 2.66667 573.6 3 574 3H569H567H562H560H555H553H548H546H541H539H534H532H527H525H520H518H513H511H506H504H499H497H492H490H485H483H478H476H471H469H464H462H457H455H450H448H443H441H436H434H429H427H422H420H415H413H408H406H401H399H394H392H387H385H380H378H373H371H366H364H359H357H352H350H345H343H338H336H331H329H324H322H317H315H310H308H303H301H296H294H289H287H282H280H275H273H268H266H261H259H254H252H247H245H240H238H233H231H226H224H219H217H212H210H205H203H198H196H191H189H184H182H177H175H170H168H163H161H156H154H149H147H142H140H135H133H128H126H121H119H114H112H107H105H100H98H93H91H86H84H79H77H72H70H65H63H58H56H51H49H44H42H37H35H30H28H23H21H16H14H9H7H2Z" fill="black"/>
<path d="M0 3H2M2 3C2.16667 3 2.6 2.9 3 2.5C3.5 2 4 1 4.5 1C4.66667 1 5.2 1.3 6 2.5C6.16667 2.66667 6.6 3 7 3M2 3H7M7 3H9M9 3C9.16667 3 9.6 2.9 10 2.5C10.5 2 11 1 11.5 1C11.6667 1 12.2 1.3 13 2.5C13.1667 2.66667 13.6 3 14 3M9 3H14M14 3H16M16 3C16.1667 3 16.6 2.9 17 2.5C17.5 2 18 1 18.5 1C18.6667 1 19.2 1.3 20 2.5C20.1667 2.66667 20.6 3 21 3M16 3H21M21 3H23M23 3C23.1667 3 23.6 2.9 24 2.5C24.5 2 25 1 25.5 1C25.6667 1 26.2 1.3 27 2.5C27.1667 2.66667 27.6 3 28 3M23 3H28M28 3H30M30 3C30.1667 3 30.6 2.9 31 2.5C31.5 2 32 1 32.5 1C32.6667 1 33.2 1.3 34 2.5C34.1667 2.66667 34.6 3 35 3M30 3H35M35 3H37M37 3C37.1667 3 37.6 2.9 38 2.5C38.5 2 39 1 39.5 1C39.6667 1 40.2 1.3 41 2.5C41.1667 2.66667 41.6 3 42 3M37 3H42M42 3H44M44 3C44.1667 3 44.6 2.9 45 2.5C45.5 2 46 1 46.5 1C46.6667 1 47.2 1.3 48 2.5C48.1667 2.66667 48.6 3 49 3M44 3H49M49 3H51M51 3C51.1667 3 51.6 2.9 52 2.5C52.5 2 53 1 53.5 1C53.6667 1 54.2 1.3 55 2.5C55.1667 2.66667 55.6 3 56 3M51 3H56M56 3H58M58 3C58.1667 3 58.6 2.9 59 2.5C59.5 2 60 1 60.5 1C60.6667 1 61.2 1.3 62 2.5C62.1667 2.66667 62.6 3 63 3M58 3H63M63 3H65M65 3C65.1667 3 65.6 2.9 66 2.5C66.5 2 67 1 67.5 1C67.6667 1 68.2 1.3 69 2.5C69.1667 2.66667 69.6 3 70 3M65 3H70M70 3H72M72 3C72.1667 3 72.6 2.9 73 2.5C73.5 2 74 1 74.5 1C74.6667 1 75.2 1.3 76 2.5C76.1667 2.66667 76.6 3 77 3M72 3H77M77 3H79M79 3C79.1667 3 79.6 2.9 80 2.5C80.5 2 81 1 81.5 1C81.6667 1 82.2 1.3 83 2.5C83.1667 2.66667 83.6 3 84 3M79 3H84M84 3H86M86 3C86.1667 3 86.6 2.9 87 2.5C87.5 2 88 1 88.5 1C88.6667 1 89.2 1.3 90 2.5C90.1667 2.66667 90.6 3 91 3M86 3H91M91 3H93M93 3C93.1667 3 93.6 2.9 94 2.5C94.5 2 95 1 95.5 1C95.6667 1 96.2 1.3 97 2.5C97.1667 2.66667 97.6 3 98 3M93 3H98M98 3H100M100 3C100.167 3 100.6 2.9 101 2.5C101.5 2 102 1 102.5 1C102.667 1 103.2 1.3 104 2.5C104.167 2.66667 104.6 3 105 3M100 3H105M105 3H107M107 3C107.167 3 107.6 2.9 108 2.5C108.5 2 109 1 109.5 1C109.667 1 110.2 1.3 111 2.5C111.167 2.66667 111.6 3 112 3M107 3H112M112 3H114M114 3C114.167 3 114.6 2.9 115 2.5C115.5 2 116 1 116.5 1C116.667 1 117.2 1.3 118 2.5C118.167 2.66667 118.6 3 119 3M114 3H119M119 3H121M121 3C121.167 3 121.6 2.9 122 2.5C122.5 2 123 1 123.5 1C123.667 1 124.2 1.3 125 2.5C125.167 2.66667 125.6 3 126 3M121 3H126M126 3H128M128 3C128.167 3 128.6 2.9 129 2.5C129.5 2 130 1 130.5 1C130.667 1 131.2 1.3 132 2.5C132.167 2.66667 132.6 3 133 3M128 3H133M133 3H135M135 3C135.167 3 135.6 2.9 136 2.5C136.5 2 137 1 137.5 1C137.667 1 138.2 1.3 139 2.5C139.167 2.66667 139.6 3 140 3M135 3H140M140 3H142M142 3C142.167 3 142.6 2.9 143 2.5C143.5 2 144 1 144.5 1C144.667 1 145.2 1.3 146 2.5C146.167 2.66667 146.6 3 147 3M142 3H147M147 3H149M149 3C149.167 3 149.6 2.9 150 2.5C150.5 2 151 1 151.5 1C151.667 1 152.2 1.3 153 2.5C153.167 2.66667 153.6 3 154 3M149 3H154M154 3H156M156 3C156.167 3 156.6 2.9 157 2.5C157.5 2 158 1 158.5 1C158.667 1 159.2 1.3 160 2.5C160.167 2.66667 160.6 3 161 3M156 3H161M161 3H163M163 3C163.167 3 163.6 2.9 164 2.5C164.5 2 165 1 165.5 1C165.667 1 166.2 1.3 167 2.5C167.167 2.66667 167.6 3 168 3M163 3H168M168 3H170M170 3C170.167 3 170.6 2.9 171 2.5C171.5 2 172 1 172.5 1C172.667 1 173.2 1.3 174 2.5C174.167 2.66667 174.6 3 175 3M170 3H175M175 3H177M177 3C177.167 3 177.6 2.9 178 2.5C178.5 2 179 1 179.5 1C179.667 1 180.2 1.3 181 2.5C181.167 2.66667 181.6 3 182 3M177 3H182M182 3H184M184 3C184.167 3 184.6 2.9 185 2.5C185.5 2 186 1 186.5 1C186.667 1 187.2 1.3 188 2.5C188.167 2.66667 188.6 3 189 3M184 3H189M189 3H191M191 3C191.167 3 191.6 2.9 192 2.5C192.5 2 193 1 193.5 1C193.667 1 194.2 1.3 195 2.5C195.167 2.66667 195.6 3 196 3M191 3H196M196 3H198M198 3C198.167 3 198.6 2.9 199 2.5C199.5 2 200 1 200.5 1C200.667 1 201.2 1.3 202 2.5C202.167 2.66667 202.6 3 203 3M198 3H203M203 3H205M205 3C205.167 3 205.6 2.9 206 2.5C206.5 2 207 1 207.5 1C207.667 1 208.2 1.3 209 2.5C209.167 2.66667 209.6 3 210 3M205 3H210M210 3H212M212 3C212.167 3 212.6 2.9 213 2.5C213.5 2 214 1 214.5 1C214.667 1 215.2 1.3 216 2.5C216.167 2.66667 216.6 3 217 3M212 3H217M217 3H219M219 3C219.167 3 219.6 2.9 220 2.5C220.5 2 221 1 221.5 1C221.667 1 222.2 1.3 223 2.5C223.167 2.66667 223.6 3 224 3M219 3H224M224 3H226M226 3C226.167 3 226.6 2.9 227 2.5C227.5 2 228 1 228.5 1C228.667 1 229.2 1.3 230 2.5C230.167 2.66667 230.6 3 231 3M226 3H231M231 3H233M233 3C233.167 3 233.6 2.9 234 2.5C234.5 2 235 1 235.5 1C235.667 1 236.2 1.3 237 2.5C237.167 2.66667 237.6 3 238 3M233 3H238M238 3H240M240 3C240.167 3 240.6 2.9 241 2.5C241.5 2 242 1 242.5 1C242.667 1 243.2 1.3 244 2.5C244.167 2.66667 244.6 3 245 3M240 3H245M245 3H247M247 3C247.167 3 247.6 2.9 248 2.5C248.5 2 249 1 249.5 1C249.667 1 250.2 1.3 251 2.5C251.167 2.66667 251.6 3 252 3M247 3H252M252 3H254M254 3C254.167 3 254.6 2.9 255 2.5C255.5 2 256 1 256.5 1C256.667 1 257.2 1.3 258 2.5C258.167 2.66667 258.6 3 259 3M254 3H259M259 3H261M261 3C261.167 3 261.6 2.9 262 2.5C262.5 2 263 1 263.5 1C263.667 1 264.2 1.3 265 2.5C265.167 2.66667 265.6 3 266 3M261 3H266M266 3H268M268 3C268.167 3 268.6 2.9 269 2.5C269.5 2 270 1 270.5 1C270.667 1 271.2 1.3 272 2.5C272.167 2.66667 272.6 3 273 3M268 3H273M273 3H275M275 3C275.167 3 275.6 2.9 276 2.5C276.5 2 277 1 277.5 1C277.667 1 278.2 1.3 279 2.5C279.167 2.66667 279.6 3 280 3M275 3H280M280 3H282M282 3C282.167 3 282.6 2.9 283 2.5C283.5 2 284 1 284.5 1C284.667 1 285.2 1.3 286 2.5C286.167 2.66667 286.6 3 287 3M282 3H287M287 3H289M289 3C289.167 3 289.6 2.9 290 2.5C290.5 2 291 1 291.5 1C291.667 1 292.2 1.3 293 2.5C293.167 2.66667 293.6 3 294 3M289 3H294M294 3H296M296 3C296.167 3 296.6 2.9 297 2.5C297.5 2 298 1 298.5 1C298.667 1 299.2 1.3 300 2.5C300.167 2.66667 300.6 3 301 3M296 3H301M301 3H303M303 3C303.167 3 303.6 2.9 304 2.5C304.5 2 305 1 305.5 1C305.667 1 306.2 1.3 307 2.5C307.167 2.66667 307.6 3 308 3M303 3H308M308 3H310M310 3C310.167 3 310.6 2.9 311 2.5C311.5 2 312 1 312.5 1C312.667 1 313.2 1.3 314 2.5C314.167 2.66667 314.6 3 315 3M310 3H315M315 3H317M317 3C317.167 3 317.6 2.9 318 2.5C318.5 2 319 1 319.5 1C319.667 1 320.2 1.3 321 2.5C321.167 2.66667 321.6 3 322 3M317 3H322M322 3H324M324 3C324.167 3 324.6 2.9 325 2.5C325.5 2 326 1 326.5 1C326.667 1 327.2 1.3 328 2.5C328.167 2.66667 328.6 3 329 3M324 3H329M329 3H331M331 3C331.167 3 331.6 2.9 332 2.5C332.5 2 333 1 333.5 1C333.667 1 334.2 1.3 335 2.5C335.167 2.66667 335.6 3 336 3M331 3H336M336 3H338M338 3C338.167 3 338.6 2.9 339 2.5C339.5 2 340 1 340.5 1C340.667 1 341.2 1.3 342 2.5C342.167 2.66667 342.6 3 343 3M338 3H343M343 3H345M345 3C345.167 3 345.6 2.9 346 2.5C346.5 2 347 1 347.5 1C347.667 1 348.2 1.3 349 2.5C349.167 2.66667 349.6 3 350 3M345 3H350M350 3H352M352 3C352.167 3 352.6 2.9 353 2.5C353.5 2 354 1 354.5 1C354.667 1 355.2 1.3 356 2.5C356.167 2.66667 356.6 3 357 3M352 3H357M357 3H359M359 3C359.167 3 359.6 2.9 360 2.5C360.5 2 361 1 361.5 1C361.667 1 362.2 1.3 363 2.5C363.167 2.66667 363.6 3 364 3M359 3H364M364 3H366M366 3C366.167 3 366.6 2.9 367 2.5C367.5 2 368 1 368.5 1C368.667 1 369.2 1.3 370 2.5C370.167 2.66667 370.6 3 371 3M366 3H371M371 3H373M373 3C373.167 3 373.6 2.9 374 2.5C374.5 2 375 1 375.5 1C375.667 1 376.2 1.3 377 2.5C377.167 2.66667 377.6 3 378 3M373 3H378M378 3H380M380 3C380.167 3 380.6 2.9 381 2.5C381.5 2 382 1 382.5 1C382.667 1 383.2 1.3 384 2.5C384.167 2.66667 384.6 3 385 3M380 3H385M385 3H387M387 3C387.167 3 387.6 2.9 388 2.5C388.5 2 389 1 389.5 1C389.667 1 390.2 1.3 391 2.5C391.167 2.66667 391.6 3 392 3M387 3H392M392 3H394M394 3C394.167 3 394.6 2.9 395 2.5C395.5 2 396 1 396.5 1C396.667 1 397.2 1.3 398 2.5C398.167 2.66667 398.6 3 399 3M394 3H399M399 3H401M401 3C401.167 3 401.6 2.9 402 2.5C402.5 2 403 1 403.5 1C403.667 1 404.2 1.3 405 2.5C405.167 2.66667 405.6 3 406 3M401 3H406M406 3H408M408 3C408.167 3 408.6 2.9 409 2.5C409.5 2 410 1 410.5 1C410.667 1 411.2 1.3 412 2.5C412.167 2.66667 412.6 3 413 3M408 3H413M413 3H415M415 3C415.167 3 415.6 2.9 416 2.5C416.5 2 417 1 417.5 1C417.667 1 418.2 1.3 419 2.5C419.167 2.66667 419.6 3 420 3M415 3H420M420 3H422M422 3C422.167 3 422.6 2.9 423 2.5C423.5 2 424 1 424.5 1C424.667 1 425.2 1.3 426 2.5C426.167 2.66667 426.6 3 427 3M422 3H427M427 3H429M429 3C429.167 3 429.6 2.9 430 2.5C430.5 2 431 1 431.5 1C431.667 1 432.2 1.3 433 2.5C433.167 2.66667 433.6 3 434 3M429 3H434M434 3H436M436 3C436.167 3 436.6 2.9 437 2.5C437.5 2 438 1 438.5 1C438.667 1 439.2 1.3 440 2.5C440.167 2.66667 440.6 3 441 3M436 3H441M441 3H443M443 3C443.167 3 443.6 2.9 444 2.5C444.5 2 445 1 445.5 1C445.667 1 446.2 1.3 447 2.5C447.167 2.66667 447.6 3 448 3M443 3H448M448 3H450M450 3C450.167 3 450.6 2.9 451 2.5C451.5 2 452 1 452.5 1C452.667 1 453.2 1.3 454 2.5C454.167 2.66667 454.6 3 455 3M450 3H455M455 3H457M457 3C457.167 3 457.6 2.9 458 2.5C458.5 2 459 1 459.5 1C459.667 1 460.2 1.3 461 2.5C461.167 2.66667 461.6 3 462 3M457 3H462M462 3H464M464 3C464.167 3 464.6 2.9 465 2.5C465.5 2 466 1 466.5 1C466.667 1 467.2 1.3 468 2.5C468.167 2.66667 468.6 3 469 3M464 3H469M469 3H471M471 3C471.167 3 471.6 2.9 472 2.5C472.5 2 473 1 473.5 1C473.667 1 474.2 1.3 475 2.5C475.167 2.66667 475.6 3 476 3M471 3H476M476 3H478M478 3C478.167 3 478.6 2.9 479 2.5C479.5 2 480 1 480.5 1C480.667 1 481.2 1.3 482 2.5C482.167 2.66667 482.6 3 483 3M478 3H483M483 3H485M485 3C485.167 3 485.6 2.9 486 2.5C486.5 2 487 1 487.5 1C487.667 1 488.2 1.3 489 2.5C489.167 2.66667 489.6 3 490 3M485 3H490M490 3H492M492 3C492.167 3 492.6 2.9 493 2.5C493.5 2 494 1 494.5 1C494.667 1 495.2 1.3 496 2.5C496.167 2.66667 496.6 3 497 3M492 3H497M497 3H499M499 3C499.167 3 499.6 2.9 500 2.5C500.5 2 501 1 501.5 1C501.667 1 502.2 1.3 503 2.5C503.167 2.66667 503.6 3 504 3M499 3H504M504 3H506M506 3C506.167 3 506.6 2.9 507 2.5C507.5 2 508 1 508.5 1C508.667 1 509.2 1.3 510 2.5C510.167 2.66667 510.6 3 511 3M506 3H511M511 3H513M513 3C513.167 3 513.6 2.9 514 2.5C514.5 2 515 1 515.5 1C515.667 1 516.2 1.3 517 2.5C517.167 2.66667 517.6 3 518 3M513 3H518M518 3H520M520 3C520.167 3 520.6 2.9 521 2.5C521.5 2 522 1 522.5 1C522.667 1 523.2 1.3 524 2.5C524.167 2.66667 524.6 3 525 3M520 3H525M525 3H527M527 3C527.167 3 527.6 2.9 528 2.5C528.5 2 529 1 529.5 1C529.667 1 530.2 1.3 531 2.5C531.167 2.66667 531.6 3 532 3M527 3H532M532 3H534M534 3C534.167 3 534.6 2.9 535 2.5C535.5 2 536 1 536.5 1C536.667 1 537.2 1.3 538 2.5C538.167 2.66667 538.6 3 539 3M534 3H539M539 3H541M541 3C541.167 3 541.6 2.9 542 2.5C542.5 2 543 1 543.5 1C543.667 1 544.2 1.3 545 2.5C545.167 2.66667 545.6 3 546 3M541 3H546M546 3H548M548 3C548.167 3 548.6 2.9 549 2.5C549.5 2 550 1 550.5 1C550.667 1 551.2 1.3 552 2.5C552.167 2.66667 552.6 3 553 3M548 3H553M553 3H555M555 3C555.167 3 555.6 2.9 556 2.5C556.5 2 557 1 557.5 1C557.667 1 558.2 1.3 559 2.5C559.167 2.66667 559.6 3 560 3M555 3H560M560 3H562M562 3C562.167 3 562.6 2.9 563 2.5C563.5 2 564 1 564.5 1C564.667 1 565.2 1.3 566 2.5C566.167 2.66667 566.6 3 567 3M562 3H567M567 3H569M569 3C569.167 3 569.6 2.9 570 2.5C570.5 2 571 1 571.5 1C571.667 1 572.2 1.3 573 2.5C573.167 2.66667 573.6 3 574 3M569 3H574M574 3H576" stroke="black"/>
</g>
</svg>
